<svg width="980" height="300" viewBox="0 0 980 300" fill="none" xmlns="http://www.w3.org/2000/svg">
  <defs>
    <linearGradient id="barRed" x1="0" y1="0" x2="1" y2="0">
      <stop offset="0" stop-color="#6A0000" stop-opacity="0"/>
      <stop offset="0.34" stop-color="#8E0000" stop-opacity="0.55"/>
      <stop offset="0.72" stop-color="#B30000" stop-opacity="0.92"/>
      <stop offset="1" stop-color="#D10909" stop-opacity="1"/>
    </linearGradient>
    <linearGradient id="barDepth" x1="0" y1="0" x2="0" y2="1">
      <stop offset="0" stop-color="#FFD2D2" stop-opacity="0.24"/>
      <stop offset="0.3" stop-color="#FFFFFF" stop-opacity="0"/>
      <stop offset="1" stop-color="#1D0000" stop-opacity="0.56"/>
    </linearGradient>
    <pattern id="grit" width="16" height="16" patternUnits="userSpaceOnUse">
      <circle cx="3" cy="4" r="0.8" fill="#FFFFFF" fill-opacity="0.08"/>
      <circle cx="11" cy="9" r="0.7" fill="#FFFFFF" fill-opacity="0.07"/>
      <circle cx="6" cy="13" r="0.8" fill="#FFFFFF" fill-opacity="0.06"/>
      <path d="M1 15L6 11M12 5L15 3" stroke="#FFFFFF" stroke-opacity="0.06" stroke-width="0.8"/>
    </pattern>
    <filter id="softShadow" x="-20%" y="-30%" width="150%" height="170%">
      <feDropShadow dx="0" dy="5" stdDeviation="4" flood-color="#000000" flood-opacity="0.45"/>
    </filter>
  </defs>

  <g transform="translate(28,34)" filter="url(#softShadow)">
    <text
      x="0"
      y="52"
      font-family="Impact, Haettenschweiler, 'Arial Narrow Bold', sans-serif"
      font-size="64"
      letter-spacing="7"
      fill="#EFEFEF"
      stroke="#0F0F0F"
      stroke-width="2"
      paint-order="stroke"
    >
      OPERATION
    </text>

    <rect x="0" y="78" width="720" height="94" rx="4" fill="url(#barRed)"/>
    <rect x="0" y="78" width="720" height="94" rx="4" fill="url(#barDepth)"/>
    <rect x="0" y="78" width="720" height="94" rx="4" fill="url(#grit)" opacity="0.5"/>
    <path d="M688 78H752L716 172H650L688 78Z" fill="#B00505" fill-opacity="0.94"/>
    <path d="M688 78H752L734 122H668L688 78Z" fill="#D00E0E" fill-opacity="0.78"/>

    <text
      x="24"
      y="157"
      font-family="Impact, Haettenschweiler, 'Arial Narrow Bold', sans-serif"
      font-size="118"
      letter-spacing="5"
      fill="#F3F3F3"
      stroke="#101010"
      stroke-width="5"
      paint-order="stroke"
    >
      SHOOT
    </text>
    <text
      x="410"
      y="157"
      font-family="Impact, Haettenschweiler, 'Arial Narrow Bold', sans-serif"
      font-size="118"
      letter-spacing="5"
      fill="#F3F3F3"
      stroke="#101010"
      stroke-width="5"
      paint-order="stroke"
    >
      ME
    </text>

    <text
      x="4"
      y="218"
      font-family="'Trebuchet MS', Arial, sans-serif"
      font-size="36"
      letter-spacing="7"
      fill="#DCDCDC"
      opacity="0.95"
    >
      DEAD ZONE SURVIVAL
    </text>
  </g>
</svg>
